<svg xmlns="http://www.w3.org/2000/svg" viewBox="0 31.100000381469727 188.39923095703125 72.32857513427734" data-asc="1.625" width="188.39923095703125" height="72.32857513427734"><defs/><g fill="#ffe438"><g transform="translate(0, 0)"><path d="M17.80 35.30Q19.45 34.10 21.70 32.65Q23.95 31.10 25.35 31.10Q26.75 31.10 27.53 32.13Q28.30 33.15 27.85 34.45Q27.40 36.20 29.00 36.10Q30 36.05 31.85 35.10Q34.10 33.90 36.90 33.80Q39.70 33.70 41.65 34.65Q43.50 35.65 45.00 38Q46.10 39.55 46.25 40.45Q46.40 41.35 45.85 43.75Q44.45 50.65 37.10 57.25L33.35 60.45L34.75 62.85Q36.05 65.10 36.50 68.35Q36.80 69.65 36.65 70.67Q36.50 71.70 36.18 72.45Q35.85 73.20 34.95 74.60Q32.25 78.50 27.70 81.05Q23.20 83.60 18.90 83.70Q16.85 83.70 15.55 83.30Q14.25 82.90 12.10 81.30L8.50 78.75L6.55 80.65Q5.15 82.05 4.72 82.10Q4.30 82.15 3.25 81.20Q2.35 80.45 2.15 79.65Q1.95 78.90 2.25 76.90Q2.55 74.85 2.40 74.20Q2.25 73.55 1.30 73.10Q0 72.35 0 71.70Q0 70.50 1.40 69.53Q2.80 68.55 4.40 68.55Q5.10 68.55 5.60 68.45Q6.05 68.35 6.53 67.97Q7 67.60 7.40 67.05Q7.95 66.30 8.60 65.45Q9.40 64.10 10.08 61.55Q10.75 59 11.20 57.95Q11.50 57.35 11.90 56.67Q12.30 56 12.72 55.30Q13.15 54.60 13.40 54.05Q14.05 52.75 14.10 51.45Q14.15 50.15 14.00 48.70Q13.85 47.25 13.95 46.20Q14.00 45.95 14.30 45.05Q14.60 44.15 14.95 43.15Q15.30 42.15 15.65 41.32Q16.00 40.50 16.15 40.50Q12.80 41.40 11.10 40.90Q9.45 40.45 8.95 39.50Q8.45 38.55 9.05 37.63Q9.65 36.70 10.95 36.20Q11.85 35.85 14.35 35.95Q16.85 36.05 17.80 35.30M30.20 68.55Q30.20 65.30 28.90 64.20Q28.15 63.50 26.88 63.45Q25.60 63.40 23.83 63.60Q22.05 63.80 20.95 63.70Q17.90 63.40 16.90 63.90Q16.25 64.25 15.67 66.05Q15.10 67.85 14.80 69.92Q14.50 72 14.60 73.90Q14.70 75.80 15.25 76.35Q16.25 77.35 17.73 77.53Q19.20 77.70 20.75 77.25Q22.30 76.80 23.60 76.15Q24.90 75.50 25.90 74.75Q30.20 71.60 30.20 68.55M36.70 41.80Q35.40 40.25 33.55 39.95Q31.40 39.65 28.80 41.05Q26.20 42.45 24.20 44.60Q22.20 46.75 20.90 49.25Q19.60 51.75 19.75 53.50Q20.10 57.25 24.50 56.85Q28.65 56.45 33.15 53.15Q37.60 49.85 37.95 46.85Q38.30 43.65 36.70 41.80ZM75.18 75.15Q76.13 74.40 76.80 74.53Q77.48 74.65 77.48 75.85Q77.48 76.10 77.38 76.38Q77.28 76.65 77.15 76.88Q77.03 77.10 76.78 77.35Q76.53 77.60 76.33 77.80Q76.13 78 75.83 78.22Q75.53 78.45 75.33 78.58Q75.13 78.70 74.83 78.90Q74.53 79.10 74.38 79.20Q73.43 79.85 72.38 80.30Q72.28 80.35 71.18 80.90L70.93 81.20Q69.58 82.50 67.03 82.80Q65.43 83 64.55 82.83Q63.68 82.65 62.13 81.95Q59.83 80.85 59.08 80.15Q58.58 79.75 58.23 79.80Q57.88 79.85 56.93 80.60Q53.88 82.80 49.65 83.08Q45.43 83.35 44.13 81.40Q43.33 80.15 43.40 76.55Q43.48 72.95 44.33 71.40Q45.08 70.05 45.48 69.40Q45.93 68.75 46.33 68.20Q46.73 67.60 47.68 66.45Q50.83 62.55 52.63 61.10Q54.03 60 55.93 59.22Q57.83 58.45 59.90 58.20Q61.98 57.95 63.58 58.75Q65.53 59.75 65.98 62.17Q66.43 64.60 65.88 66.88Q65.33 69.15 64.33 71.15Q63.48 73.05 63.05 75.30Q62.63 77.55 63.08 78.25Q64.03 80.15 69.33 78.50Q69.53 78.45 69.73 78.45Q70.03 78.35 70.18 78.25Q73.38 76.60 75.18 75.15M60.08 65.75Q60.63 65.45 60.68 65.25Q60.73 65.05 60.43 64.75Q59.83 64.10 58.73 63.90Q57.63 63.70 56.58 64Q55.53 64.25 53.40 66Q51.28 67.75 50.53 69Q49.53 70.45 48.83 71.60Q47.98 72.80 47.68 75.10Q47.38 77.40 47.93 78.10Q48.43 78.70 50.13 78.70Q51.83 78.70 53.33 78.15Q54.78 77.45 55.48 76.05Q56.68 73.70 57.43 72.25Q58.73 70 58.73 69.20Q58.73 68.70 59.15 68.17Q59.58 67.65 59.38 67.05Q59.13 66.25 60.08 65.75ZM98.83 74.75Q99.93 73.80 100.75 73.97Q101.58 74.15 101.58 75.60Q101.58 76 101.38 76.45Q101.18 76.90 100.93 77.22Q100.68 77.55 100.18 77.97Q99.68 78.40 99.40 78.60Q99.13 78.80 98.55 79.17Q97.98 79.55 97.88 79.65Q96.68 80.45 95.38 80.95Q95.23 81.05 94.23 81.60Q93.23 82.15 92.08 82.70Q90.93 83.25 90.03 83.55Q88.93 84.35 87.18 85.30Q84.58 86.75 83.73 88.70Q83.48 89.20 83.03 90Q82.63 90.75 82.08 91.55Q81.58 92.30 80.93 93.20Q80.28 94.15 79.78 94.90Q79.28 95.65 78.73 96.35Q78.18 97.10 77.93 97.45Q77.58 98.05 75.70 99.22Q73.83 100.40 71.93 101.40Q67.88 103.40 66.83 100Q66.38 98.55 66.38 97.80Q66.38 97.40 66.55 96.97Q66.73 96.55 66.93 96.20Q67.13 95.85 67.50 95.45Q67.88 95.05 68.15 94.80Q68.43 94.55 68.85 94.15Q69.28 93.75 69.48 93.60Q71.38 91.75 74.58 90.05Q75.48 89.55 77.23 88.40Q79.53 86.90 79.93 86.70Q81.03 86.10 82.68 83.60Q84.33 81.10 83.93 80.70Q83.63 80.45 81.33 81.20Q75.18 83.30 73.48 76.75Q72.98 74.95 73.83 71.95Q74.68 68.95 76.28 66.60Q77.23 65.25 78.30 64Q79.38 62.75 80.80 61.52Q82.23 60.30 83.70 59.42Q85.18 58.55 86.88 58.15Q88.58 57.75 90.13 58.05Q91.93 58.35 92.83 59.45Q93.73 60.55 93.75 61.95Q93.78 63.35 93.48 64.95Q92.93 67.25 92.15 69.35Q91.38 71.45 90.83 72.10Q90.18 72.90 90.18 73.40Q90.18 73.85 88.83 76.45Q87.58 79.20 87.58 80.30Q87.58 80.75 87.63 81Q87.78 80.75 88.70 80.30Q89.63 79.85 90.95 79.30Q92.28 78.75 92.73 78.55Q96.58 76.50 98.83 74.75M79.33 90.90Q80.28 89.30 79.63 89.30Q78.68 89.30 76.03 91.45Q73.38 93.60 71.30 95.97Q69.23 98.35 69.68 98.80Q70.73 99.80 74.03 97.10Q77.33 94.40 79.33 90.90M83.68 74.60Q86.53 69.95 86.53 69.40Q86.53 68.30 87.28 67.17Q88.03 66.05 88.18 64.50Q88.38 63.05 87.78 62.85Q87.13 62.65 85.15 63.88Q83.18 65.10 82.53 66.05Q82.33 66.35 81.45 67.08Q80.58 67.80 79.63 68.80Q78.68 69.80 78.23 70.80Q76.58 74.30 76.98 75.85Q77.43 77.70 78.53 77.92Q79.63 78.15 81.73 76.80Q82.68 76.25 83.68 74.60ZM118.90 74.40Q118.90 75.25 117.33 76.80Q115.75 78.35 114.85 78.85Q114.25 79.25 113.45 79.63Q112.65 80 111.95 80.30Q111.25 80.60 110.65 80.83Q110.05 81.05 109.63 81.22Q109.20 81.40 109.15 81.40Q107.90 81.95 106.60 82.15Q105.30 82.35 104.53 82.38Q103.75 82.40 103.00 82.70Q102.25 83 101.68 83.95Q101.10 84.90 100.60 86.80Q100.25 88.10 99.75 91.60Q99.25 95.10 98.43 97.55Q97.60 100 95.95 101.60Q94.70 102.80 93.68 103.20Q92.65 103.60 92.00 103.30Q91.35 103 90.83 102.30Q90.30 101.60 90.10 100.55Q89.90 99.50 89.80 98.45Q89.70 97.40 89.90 96.35Q90.25 93.65 91.18 90.97Q92.10 88.30 93.73 84.63Q95.35 80.95 95.90 79.55Q96.65 77.65 97.30 75.05Q97.35 74.70 97.50 73.80Q97.65 72.90 97.83 72.28Q98.00 71.65 98.35 71.15Q98.55 70.85 99.03 70.40Q99.50 69.95 99.95 69.53Q100.40 69.10 100.85 68.65Q101.30 68.20 101.58 67.67Q101.85 67.15 101.85 66.60Q101.85 65.30 103.45 61Q105.05 56.65 107.05 52.45Q110.60 44.75 110.95 43.85Q111.10 43.55 111.28 43.02Q111.45 42.50 111.60 42.05Q111.75 41.60 111.95 41.07Q112.15 40.55 112.40 40.10Q112.65 39.65 112.95 39.27Q113.25 38.90 113.65 38.65Q114.05 38.40 114.55 38.30Q116.20 38.05 117.08 39.25Q117.95 40.45 117.90 42.10Q117.85 43.90 117.45 45.82Q117.05 47.75 116.55 49.25Q116.05 50.75 115.10 52.77Q114.15 54.80 113.50 55.97Q112.85 57.15 111.65 59.33Q110.45 61.50 109.90 62.50Q108.55 65.10 105.58 69.88Q102.60 74.65 102.20 75.35Q101.85 75.90 101.70 76.30Q101.55 76.70 101.63 77.22Q101.70 77.75 102.08 78.13Q102.45 78.50 103.13 78.63Q103.80 78.75 105.40 78.90Q106.30 79 107.38 78.75Q108.45 78.50 109.35 78.05Q110.25 77.60 111.18 77.08Q112.10 76.55 112.73 76.08Q113.35 75.60 113.83 75.25Q114.30 74.90 114.35 74.90Q115.45 74.15 116.15 73.60Q117.25 72.65 118.08 72.83Q118.90 73 118.90 74.40M95.30 88.95Q95.25 89 95.20 89.15Q93.95 93.45 94.95 94.65Q96.10 92.55 96.45 88.85Q96.50 88.40 96.30 88.20Q96.00 87.90 95.60 88.25Q95.40 88.45 95.30 88.95ZM149.93 74.55Q151.03 73.65 151.85 73.80Q152.68 73.95 152.68 75.40Q152.68 75.85 152.48 76.30Q152.28 76.75 152.03 77.05Q151.78 77.35 151.28 77.78Q150.78 78.20 150.50 78.40Q150.23 78.60 149.65 78.97Q149.08 79.35 148.93 79.45Q145.38 81.90 145.28 82.05Q144.98 82.35 143.80 82.70Q142.63 83.05 141.98 83.05Q141.13 83.30 140.48 83.30Q139.83 83.30 139 83.08Q138.18 82.85 137.80 82.70Q137.43 82.55 137.18 82.45Q135.83 81.80 133.48 79.60L131.53 77.75L129.03 79.60Q126.43 81.35 123.38 81.75Q120.83 82 118.53 81.20Q116.23 80.40 114.90 78.42Q113.58 76.45 114.13 73.70Q114.73 70.80 117.00 67.33Q119.28 63.85 121.83 61.40Q123.78 59.55 124.93 59.55Q125.48 59.55 126.43 60.55Q127.08 61.25 127.05 61.70Q127.03 62.15 126.28 63.55Q120.13 75.60 123.08 76.65L123.48 76.70Q125.53 77 129.13 73.30Q132.73 69.60 134.13 65.80Q135.18 63.25 136.68 61.20Q137.98 59.40 138.58 59.17Q139.18 58.95 140.83 59.80Q142.23 60.55 142.30 61.50Q142.38 62.45 141.28 64.55Q140.73 65.40 140.38 66.45Q140.03 67.45 139.83 68.25Q139.73 68.50 139.58 69.17Q139.43 69.85 139.28 70.30Q138.98 71.55 138.73 72.35Q138.23 74.45 138.23 76.33Q138.23 78.20 138.83 78.80Q139.33 79.30 140.98 79.40Q141.23 79.30 142.33 78.92Q143.43 78.55 143.83 78.35Q147.68 76.35 149.93 74.55ZM157.85 64.45Q156.20 66.45 155.00 68.20Q153.80 69.95 153.90 70.40Q153.90 71.20 155.30 74.05Q157.00 77.30 159.25 77.30Q159.70 77.30 160.18 77.20Q160.65 77.10 161.38 76.85Q162.10 76.60 162.30 76.55Q162.85 76.40 164.10 75.65Q165.65 74.70 167.05 73.60Q168.15 72.65 168.98 72.83Q169.80 73 169.85 74.40Q169.85 74.85 169.63 75.30Q169.40 75.75 169.15 76.08Q168.90 76.40 168.43 76.83Q167.95 77.25 167.65 77.45Q167.35 77.65 166.80 78.03Q166.25 78.40 166.10 78.50Q165.70 78.75 164.90 79.25Q164.10 79.75 163.70 80Q162.00 81.15 160.25 81.35Q158.55 81.60 157.70 81.38Q156.85 81.15 155.20 80.05Q153.10 78.60 151.80 76.90Q150.50 75.20 150.05 73.65Q149.60 72.10 149.60 70.05Q149.60 68 149.85 66.38Q150.10 64.75 150.48 62.38Q150.85 60 150.90 58.30Q150.95 57.65 151.03 56.95Q151.10 56.25 151.18 55.67Q151.25 55.10 151.40 54.30Q151.55 53.50 151.63 53.05Q151.70 52.60 151.95 51.72Q152.20 50.85 152.28 50.50Q152.35 50.15 152.63 49.17Q152.90 48.20 152.98 47.95Q153.05 47.70 153.38 46.63Q153.70 45.55 153.75 45.35Q154.30 43.50 154.70 42.65Q155.15 41.75 155.93 40.88Q156.70 40 157.33 39.45Q157.95 38.90 159.00 38.05Q159.40 37.75 160.38 36.95Q161.35 36.15 161.80 35.82Q162.25 35.50 163.03 34.92Q163.80 34.35 164.53 33.92Q165.25 33.50 166.10 33.10Q168.00 32.15 169.05 32.40Q169.85 32.60 170.40 33.27Q170.95 33.95 171.15 34.80Q171.30 35.40 171.38 36.02Q171.45 36.65 171.40 37.38Q171.35 38.10 171.33 38.60Q171.30 39.10 171.10 39.95Q170.90 40.80 170.83 41.17Q170.75 41.55 170.43 42.47Q170.10 43.40 170.03 43.65Q169.95 43.90 169.58 44.92Q169.20 45.95 169.15 46.10Q167.90 49.45 167.15 50.50Q166.65 51.20 164.25 55.75Q161.80 60.30 160.85 61.20Q159.50 62.45 157.85 64.45M157.20 52.30Q156.65 52.80 155.93 55.70Q155.20 58.60 155.65 59.05Q155.90 59.25 156.48 58.63Q157.05 58 157.88 56.67Q158.70 55.35 159.50 53.50Q161.15 50.20 161.15 49.90Q161.15 49.75 162.70 46.50Q164.25 43.30 164.25 42.60Q164.25 41.15 162.95 42.30Q162.10 42.95 161.30 44.35Q160.05 46.65 158.95 48.05Q157.95 49.35 157.95 50.50Q157.95 51.60 157.20 52.30ZM174.83 64.45Q173.18 66.45 171.98 68.20Q170.78 69.95 170.88 70.40Q170.88 71.20 172.28 74.05Q173.98 77.30 176.23 77.30Q176.68 77.30 177.15 77.20Q177.63 77.10 178.35 76.85Q179.08 76.60 179.28 76.55Q179.83 76.40 181.08 75.65Q182.63 74.70 184.03 73.60Q185.13 72.65 185.95 72.83Q186.78 73 186.83 74.40Q186.83 74.85 186.60 75.30Q186.38 75.75 186.13 76.08Q185.88 76.40 185.40 76.83Q184.93 77.25 184.63 77.45Q184.33 77.65 183.78 78.03Q183.23 78.40 183.08 78.50Q182.68 78.75 181.88 79.25Q181.08 79.75 180.68 80Q178.98 81.15 177.23 81.35Q175.53 81.60 174.68 81.38Q173.83 81.15 172.18 80.05Q170.08 78.60 168.78 76.90Q167.48 75.20 167.03 73.65Q166.58 72.10 166.58 70.05Q166.58 68 166.83 66.38Q167.08 64.75 167.45 62.38Q167.83 60 167.88 58.30Q167.93 57.65 168 56.95Q168.08 56.25 168.15 55.67Q168.23 55.10 168.38 54.30Q168.53 53.50 168.60 53.05Q168.68 52.60 168.93 51.72Q169.18 50.85 169.25 50.50Q169.33 50.15 169.60 49.17Q169.88 48.20 169.95 47.95Q170.03 47.70 170.35 46.63Q170.68 45.55 170.73 45.35Q171.28 43.50 171.68 42.65Q172.13 41.75 172.90 40.88Q173.68 40 174.30 39.45Q174.93 38.90 175.98 38.05Q176.38 37.75 177.35 36.95Q178.33 36.15 178.78 35.82Q179.23 35.50 180 34.92Q180.78 34.35 181.50 33.92Q182.23 33.50 183.08 33.10Q184.98 32.15 186.03 32.40Q186.83 32.60 187.38 33.27Q187.93 33.95 188.13 34.80Q188.28 35.40 188.35 36.02Q188.43 36.65 188.38 37.38Q188.33 38.10 188.30 38.60Q188.28 39.10 188.08 39.95Q187.88 40.80 187.80 41.17Q187.73 41.55 187.40 42.47Q187.08 43.40 187 43.65Q186.93 43.90 186.55 44.92Q186.18 45.95 186.13 46.10Q184.88 49.45 184.13 50.50Q183.63 51.20 181.23 55.75Q178.78 60.30 177.83 61.20Q176.48 62.45 174.83 64.45M174.18 52.30Q173.63 52.80 172.90 55.70Q172.18 58.60 172.63 59.05Q172.88 59.25 173.45 58.63Q174.03 58 174.85 56.67Q175.68 55.35 176.48 53.50Q178.13 50.20 178.13 49.90Q178.13 49.75 179.68 46.50Q181.23 43.30 181.23 42.60Q181.23 41.15 179.93 42.30Q179.08 42.95 178.28 44.35Q177.03 46.65 175.93 48.05Q174.93 49.35 174.93 50.50Q174.93 51.60 174.18 52.30Z"/></g></g></svg>